<?xml version="1.0" encoding="UTF-8"?>
<svg width="62px" height="27px" viewBox="0 0 62 27" version="1.1" xmlns="http://www.w3.org/2000/svg" xmlns:xlink="http://www.w3.org/1999/xlink">
    <!-- Generator: Sketch 41.2 (35397) - http://www.bohemiancoding.com/sketch -->
    <title>miIk</title>
    <desc>Created with Sketch.</desc>
    <defs></defs>
    <g id="Page-1" stroke="none" stroke-width="1" fill="none" fill-rule="evenodd">
        <g id="2b-Work" transform="translate(-312.000000, -107.000000)" fill="#000000">
            <path d="M338.315,134 L333.765,134 L333.765,122.975 C333.765,121.831661 333.438337,120.968336 332.785,120.385 C332.248331,119.894998 331.571671,119.65 330.755,119.65 C329.938329,119.65 329.261669,119.883331 328.725,120.35 C328.04833,120.933336 327.71,121.773328 327.71,122.87 L327.71,134 L323.16,134 L323.16,122.975 C323.16,121.831661 322.833337,120.968336 322.18,120.385 C321.643331,119.894998 320.966671,119.65 320.15,119.65 C319.309996,119.65 318.621669,119.894998 318.085,120.385 C317.431663,120.968336 317.105,121.831661 317.105,122.975 L317.105,134 L312.555,134 L312.555,115.765 L317,115.765 L317,117.445 C318.213339,116.184994 319.729991,115.555 321.55,115.555 C323.650011,115.555 325.259994,116.324992 326.38,117.865 C327.850007,116.324992 329.669989,115.555 331.84,115.555 C333.753343,115.555 335.246661,116.091661 336.32,117.165 C337.650007,118.495007 338.315,120.221656 338.315,122.345 L338.315,134 Z M346.125,110.62 C346.125,111.413337 345.850836,112.089997 345.3025,112.65 C344.754164,113.210003 344.083337,113.49 343.29,113.49 C342.496663,113.49 341.820003,113.210003 341.26,112.65 C340.699997,112.089997 340.42,111.413337 340.42,110.62 C340.42,109.826663 340.699997,109.155836 341.26,108.6075 C341.820003,108.059164 342.496663,107.785 343.29,107.785 C344.083337,107.785 344.754164,108.059164 345.3025,108.6075 C345.850836,109.155836 346.125,109.826663 346.125,110.62 Z M345.565,134 L341.015,134 L341.015,115.765 L345.565,115.765 L345.565,134 Z M353.655,134 L348.79,134 L348.79,109.08 L353.655,109.08 L353.655,134 Z M373.505,134 L367.87,134 L363.39,126.405 L361.465,128.575 L361.465,134 L356.915,134 L356.915,109.08 L361.465,109.08 L361.465,123.22 L367.52,115.765 L373.015,115.765 L366.505,123.115 L373.505,134 Z" id="miIk"></path>
        </g>
    </g>
</svg>