<?xml version="1.0" encoding="UTF-8"?>
<svg width="62px" height="27px" viewBox="0 0 62 27" version="1.1" xmlns="http://www.w3.org/2000/svg" xmlns:xlink="http://www.w3.org/1999/xlink">
    <!-- Generator: Sketch 41.2 (35397) - http://www.bohemiancoding.com/sketch -->
    <title>miIk</title>
    <desc>Created with Sketch.</desc>
    <defs></defs>
    <g id="Page-1" stroke="none" stroke-width="1" fill="none" fill-rule="evenodd">
        <path d="M26.315,27 L21.765,27 L21.765,15.975 C21.765,14.831661 21.438337,13.968336 20.785,13.385 C20.248331,12.894998 19.571671,12.65 18.755,12.65 C17.938329,12.65 17.261669,12.883331 16.725,13.35 C16.04833,13.933336 15.71,14.773328 15.71,15.87 L15.71,27 L11.16,27 L11.16,15.975 C11.16,14.831661 10.833337,13.968336 10.18,13.385 C9.643331,12.894998 8.966671,12.65 8.15,12.65 C7.309996,12.65 6.621669,12.894998 6.085,13.385 C5.431663,13.968336 5.105,14.831661 5.105,15.975 L5.105,27 L0.555,27 L0.555,8.765 L5,8.765 L5,10.445 C6.213339,9.184994 7.729991,8.555 9.55,8.555 C11.650011,8.555 13.259994,9.324992 14.38,10.865 C15.850007,9.324992 17.669989,8.555 19.84,8.555 C21.753343,8.555 23.246661,9.091661 24.32,10.165 C25.650007,11.495007 26.315,13.221656 26.315,15.345 L26.315,27 Z M34.125,3.62 C34.125,4.413337 33.850836,5.089997 33.3025,5.65 C32.754164,6.210003 32.083337,6.49 31.29,6.49 C30.496663,6.49 29.820003,6.210003 29.26,5.65 C28.699997,5.089997 28.42,4.413337 28.42,3.62 C28.42,2.826663 28.699997,2.155836 29.26,1.6075 C29.820003,1.059164 30.496663,0.785 31.29,0.785 C32.083337,0.785 32.754164,1.059164 33.3025,1.6075 C33.850836,2.155836 34.125,2.826663 34.125,3.62 Z M33.565,27 L29.015,27 L29.015,8.765 L33.565,8.765 L33.565,27 Z M41.655,27 L36.79,27 L36.79,2.08 L41.655,2.08 L41.655,27 Z M61.505,27 L55.87,27 L51.39,19.405 L49.465,21.575 L49.465,27 L44.915,27 L44.915,2.08 L49.465,2.08 L49.465,16.22 L55.52,8.765 L61.015,8.765 L54.505,16.115 L61.505,27 Z" id="miIk" fill="#FFFFFF"></path>
    </g>
</svg>