<?xml version="1.0" encoding="UTF-8"?>
<svg width="25px" height="16px" viewBox="0 0 25 16" version="1.1" xmlns="http://www.w3.org/2000/svg" xmlns:xlink="http://www.w3.org/1999/xlink">
    <!-- Generator: Sketch 41.2 (35397) - http://www.bohemiancoding.com/sketch -->
    <title>if_icon-6-mail-envelope-closed_314423</title>
    <desc>Created with Sketch.</desc>
    <defs></defs>
    <g id="Page-1" stroke="none" stroke-width="1" fill="none" fill-rule="evenodd">
        <g id="if_icon-6-mail-envelope-closed_314423" fill="#FFA600">
            <g id="Page-1">
                <g id="icon-6-mail-envelope-closed">
                    <path d="M1.31500722,1.27391933 C1.12106043,1.45739405 1,1.71770487 1,2.0068455 L1,13.9931545 C1,14.2828882 1.11915965,14.5440384 1.31310687,14.7277332 L1.31310687,14.7277332 L9.05,8 L1.31500722,1.27391933 L1.31500722,1.27391933 L1.31500722,1.27391933 Z M23.6868931,1.27226685 C23.8808404,1.45596162 24,1.71711185 24,2.0068455 L24,13.9931545 C24,14.2822951 23.8789396,14.542606 23.6849928,14.7260807 L15.95,8 L23.6868931,1.27226685 L23.6868931,1.27226685 Z M15.2018297,8.6505829 L22.5,15 L2.5,15 L9.7981703,8.6505829 L12.5,11 L15.2018297,8.6505829 L15.2018297,8.6505829 Z M2.00359486,0 C0.89703997,0 0,0.89451376 0,1.99406028 L0,14.0059397 C0,15.1072288 0.88976324,16 2.00359486,16 L22.9964051,16 C24.10296,16 25,15.1054862 25,14.0059397 L25,1.99406028 C25,0.8927712 24.1102368,0 22.9964051,0 L2.00359486,0 L2.00359486,0 Z M12.5,9.7000122 L22.5,1 L2.5,1 L12.5,9.7000122 L12.5,9.7000122 Z" id="mail-envelope-closed"></path>
                </g>
            </g>
        </g>
    </g>
</svg>